<svg xmlns="http://www.w3.org/2000/svg" viewBox="0 0 200 200" fill="none" stroke="url(#g)" stroke-width="4" stroke-linecap="round" stroke-linejoin="round"><defs><linearGradient id="g" gradientUnits="userSpaceOnUse" x1="20" y1="10" x2="180" y2="190"><stop offset="0" stop-color="#f7e9b4"/><stop offset=".5" stop-color="#d4af37"/><stop offset="1" stop-color="#b8952e"/></linearGradient><linearGradient id="f" gradientUnits="userSpaceOnUse" x1="0" y1="20" x2="0" y2="190"><stop offset="0" stop-color="#f0d97d" stop-opacity=".42"/><stop offset="1" stop-color="#d4af37" stop-opacity=".07"/></linearGradient></defs><rect x="22" y="90" width="132" height="84" rx="12" fill="url(#f)"/><path d="M22 102L88 148L154 102"/><path d="M22 168L74 122M154 168L102 122"/><path d="M118 18H172Q186 18 186 32V60Q186 74 172 74H154L140 90V74H118Q104 74 104 60V32Q104 18 118 18Z" fill="url(#f)"/><circle cx="124" cy="46" r="3.5" fill="url(#g)" stroke="none"/><circle cx="145" cy="46" r="3.5" fill="url(#g)" stroke="none"/><circle cx="166" cy="46" r="3.5" fill="url(#g)" stroke="none"/></svg>